<svg width="18" height="18" viewBox="0 0 18 18" fill="none" xmlns="http://www.w3.org/2000/svg">
<path d="M9.02055 18C6.49813 18 4.36394 17.127 2.61796 15.3811C0.872654 13.6358 0 11.502 0 8.97964C0 6.67444 0.751712 4.67392 2.25514 2.9781C3.75856 1.28294 5.6796 0.29337 8.01826 0.0093962C8.43588 -0.0407169 8.76162 0.109622 8.99549 0.460414C9.22935 0.811206 9.221 1.1787 8.97043 1.5629C8.68645 1.99722 8.4733 2.45659 8.33098 2.94101C8.18932 3.42544 8.11849 3.93492 8.11849 4.46946C8.11849 5.97286 8.64469 7.25074 9.69709 8.30311C10.7495 9.35549 12.0274 9.88168 13.5308 9.88168C14.0487 9.88168 14.5625 9.80651 15.0723 9.65617C15.5815 9.50583 16.0365 9.29702 16.4374 9.02975C16.7882 8.79589 17.1474 8.7832 17.5149 8.99167C17.8824 9.20081 18.0411 9.53089 17.991 9.9819C17.7571 12.2871 16.7759 14.1998 15.0473 15.7199C13.318 17.24 11.3091 18 9.02055 18Z" fill="#4E466C"/>
</svg>
