<svg width="52" height="51" viewBox="0 0 52 51" fill="none" xmlns="http://www.w3.org/2000/svg">
<path d="M12.9998 7.65039C10.1317 7.65039 7.7998 9.93742 7.7998 12.7504V38.2504C7.7998 41.0634 10.1317 43.3504 12.9998 43.3504H38.9998C41.8679 43.3504 44.1998 41.0634 44.1998 38.2504V12.7504C44.1998 9.93742 41.8679 7.65039 38.9998 7.65039H12.9998ZM13.4061 21.2132H18.8092V38.2504H13.4061V21.2132ZM19.2317 15.8184C19.2317 17.5157 17.8342 18.8863 16.1036 18.8863C14.3729 18.8863 12.9754 17.5157 12.9754 15.8184C12.9754 14.121 14.3729 12.7504 16.1036 12.7504C17.8342 12.7504 19.2317 14.121 19.2317 15.8184ZM33.6292 38.2504V29.9629C33.6292 27.9866 33.5886 25.4446 30.8261 25.4446C28.0148 25.4446 27.5842 27.5962 27.5842 29.8195V38.2504H22.1892V21.2132H27.3648V23.5401H27.4379C28.1611 22.2013 29.9242 20.7909 32.5486 20.7909C38.0086 20.7909 39.0242 24.321 39.0242 28.911V38.2504H33.6292Z" fill="#241B4B"/>
</svg>
