<svg width="51" height="52" viewBox="0 0 51 52" fill="none" xmlns="http://www.w3.org/2000/svg">
<path d="M23.1412 22.4004C21.8343 23.2373 21.0772 24.7404 21.1569 26.3086C21.2446 27.8848 22.169 29.2823 23.5555 29.9729C24.9501 30.6554 26.5996 30.5092 27.8587 29.5992C29.1655 28.7623 29.9226 27.2592 29.8429 25.6911C29.7552 24.1148 28.8308 22.7173 27.4443 22.0267C26.0497 21.3442 24.4002 21.4904 23.1412 22.4004ZM34.4807 16.8429C34.0663 16.4204 33.5643 16.0873 33.0144 15.8679C31.5721 15.2911 28.4244 15.3154 26.3924 15.3398C26.0657 15.3398 25.7629 15.3479 25.4999 15.3479C25.2369 15.3479 24.9262 15.3479 24.5915 15.3398C22.5594 15.3154 19.4277 15.2829 17.9854 15.8679C17.4355 16.0873 16.9415 16.4204 16.5191 16.8429C16.0968 17.2654 15.778 17.7773 15.5629 18.3379C14.9971 19.8086 15.029 23.0261 15.0449 25.0979C15.0449 25.4311 15.0529 25.7398 15.0529 25.9998C15.0529 26.2598 15.0529 26.5686 15.0449 26.9017C15.029 28.9736 14.9971 32.1911 15.5629 33.6617C15.778 34.2223 16.1047 34.7261 16.5191 35.1567C16.9335 35.5873 17.4355 35.9123 17.9854 36.1317C19.4277 36.7086 22.5754 36.6842 24.6074 36.6598C24.9341 36.6598 25.2369 36.6517 25.4999 36.6517C25.7629 36.6517 26.0737 36.6517 26.4083 36.6598C28.4404 36.6842 31.5721 36.7167 33.0144 36.1317C33.5643 35.9123 34.0583 35.5792 34.4807 35.1567C34.903 34.7342 35.2218 34.2223 35.4369 33.6617C36.0107 32.1992 35.9788 28.9979 35.9549 26.9179C35.9549 26.5767 35.9469 26.2598 35.9469 25.9917C35.9469 25.7236 35.9469 25.4148 35.9549 25.0654C35.9788 22.9936 36.0107 19.7923 35.4369 18.3217C35.2218 17.7611 34.8951 17.2573 34.4807 16.8267V16.8429ZM29.1337 20.4586C30.576 21.4417 31.5721 22.9692 31.9147 24.6998C32.2574 26.4304 31.8988 28.2342 30.9346 29.7048C30.4565 30.4361 29.8429 31.0536 29.1337 31.5411C28.4244 32.0286 27.6196 32.3617 26.7749 32.5323C25.0776 32.8736 23.3085 32.5161 21.8662 31.5329C20.4238 30.5498 19.4277 29.0223 19.0851 27.2917C18.7424 25.5611 19.101 23.7573 20.0572 22.2867C21.0135 20.8161 22.5196 19.8004 24.2169 19.4511C25.9143 19.1017 27.6833 19.4673 29.1257 20.4423H29.1337V20.4586ZM31.4605 20.3529C31.2135 20.1823 31.0143 19.9386 30.8947 19.6542C30.7752 19.3698 30.7513 19.0611 30.8071 18.7523C30.8629 18.4436 31.0143 18.1754 31.2215 17.9561C31.4287 17.7367 31.7076 17.5904 32.0024 17.5336C32.2972 17.4767 32.608 17.5011 32.8869 17.6229C33.1658 17.7448 33.4049 17.9398 33.5722 18.1917C33.7396 18.4436 33.8272 18.7442 33.8272 19.0529C33.8272 19.2561 33.7874 19.4592 33.7157 19.6461C33.644 19.8329 33.5244 20.0036 33.389 20.1498C33.2535 20.2961 33.0782 20.4098 32.8949 20.4911C32.7116 20.5723 32.5124 20.6129 32.3132 20.6129C32.0104 20.6129 31.7155 20.5236 31.4685 20.3529H31.4605ZM43.3499 12.9998C43.3499 10.1317 41.0629 7.7998 38.2499 7.7998H12.7499C9.93693 7.7998 7.6499 10.1317 7.6499 12.9998V38.9998C7.6499 41.8679 9.93693 44.1998 12.7499 44.1998H38.2499C41.0629 44.1998 43.3499 41.8679 43.3499 38.9998V12.9998ZM36.0983 36.8061C34.6082 38.3254 32.7993 38.8048 30.7593 38.9104C28.6555 39.0323 22.3443 39.0323 20.2405 38.9104C18.2005 38.8048 16.3916 38.3254 14.9015 36.8061C13.4113 35.2867 12.9412 33.4423 12.8455 31.3623C12.726 29.2173 12.726 22.7823 12.8455 20.6373C12.9491 18.5573 13.4113 16.7129 14.9015 15.1936C16.3916 13.6742 18.2085 13.1948 20.2405 13.0973C22.3443 12.9754 28.6555 12.9754 30.7593 13.0973C32.7993 13.2029 34.6082 13.6742 36.0983 15.1936C37.5885 16.7129 38.0587 18.5573 38.1543 20.6373C38.2738 22.7742 38.2738 29.2011 38.1543 31.3542C38.0507 33.4342 37.5885 35.2786 36.0983 36.7979V36.8061Z" fill="#241B4B"/>
</svg>
