<svg width="51" height="51" viewBox="0 0 51 51" fill="none" xmlns="http://www.w3.org/2000/svg">
<path d="M30.1218 25.5163L22.5355 21.2052V29.8274L30.1218 25.5163ZM38.2499 7.65039H12.7499C9.93693 7.65039 7.6499 9.93742 7.6499 12.7504V38.2504C7.6499 41.0634 9.93693 43.3504 12.7499 43.3504H38.2499C41.0629 43.3504 43.3499 41.0634 43.3499 38.2504V12.7504C43.3499 9.93742 41.0629 7.65039 38.2499 7.65039ZM39.3974 18.4959C40.003 20.7749 40.003 25.5243 40.003 25.5243C40.003 25.5243 40.003 30.2737 39.3974 32.5448C39.0627 33.8038 38.0826 34.7521 36.8315 35.0868C34.5763 35.7004 25.4999 35.7004 25.4999 35.7004C25.4999 35.7004 16.4235 35.7004 14.1683 35.0948C12.9172 34.7601 11.9371 33.8118 11.6024 32.5527C10.9968 30.2737 10.9968 25.5243 10.9968 25.5243C10.9968 25.5243 10.9968 20.767 11.6024 18.4959C11.9371 17.2368 12.9172 16.2487 14.1683 15.914C16.4235 15.3004 25.4999 15.3004 25.4999 15.3004C25.4999 15.3004 34.5763 15.3004 36.8315 15.914C38.0826 16.2487 39.0627 17.2368 39.3974 18.4959Z" fill="#241B4B"/>
</svg>
