<svg width="1360" height="165" viewBox="0 0 1360 165" fill="none" xmlns="http://www.w3.org/2000/svg">
<g clip-path="url(#clip0_765_5432)">
<path d="M1131.85 24.9069C1119.91 42.4852 1095.78 21.1855 1107.59 6.94753C1119.67 -7.60793 1142.64 9.01781 1131.85 24.9069Z" fill="#E0E3FF"/>
<path d="M1004.01 116.292C1014.24 100.733 1039.82 116.597 1029.51 132.943C1018.82 149.912 993.853 131.736 1004.01 116.292Z" fill="#E0E3FF"/>
<path d="M933.719 73.8826C943.944 58.3237 969.521 74.1874 959.219 90.5337C948.524 107.502 923.557 89.3271 933.719 73.8826Z" fill="#E0E3FF"/>
<path d="M1187.2 53.6623C1191.55 66.6302 1170.93 74.6192 1166.12 62.9849C1158.65 44.8859 1182.69 40.2373 1187.2 53.6623Z" fill="#E0E3FF"/>
<path d="M1057.32 79.6741C1061.12 92.2609 1040.03 99.2465 1035.64 86.6978C1030.05 70.669 1053.15 65.868 1057.32 79.6741Z" fill="#E0E3FF"/>
<path d="M1300.42 125.334C1304.18 133.45 1289.3 136.88 1289.25 126.947C1289.22 121.613 1298.55 121.27 1300.42 125.334Z" fill="#E0E3FF"/>
<path d="M1272.42 69.8688C1274.4 77.7308 1261.12 78.7215 1261.17 70.2625C1261.2 64.8011 1270.99 64.1533 1272.42 69.8688Z" fill="#E0E3FF"/>
<path d="M1332.79 143.447C1347.82 143.447 1360 131.249 1360 116.203C1360 101.156 1347.82 88.959 1332.79 88.959C1317.76 88.959 1305.57 101.156 1305.57 116.203C1305.57 131.249 1317.76 143.447 1332.79 143.447Z" fill="#E0E3FF"/>
<path d="M835.727 152.096C850.757 152.096 862.94 139.899 862.94 124.852C862.94 109.806 850.757 97.6084 835.727 97.6084C820.698 97.6084 808.515 109.806 808.515 124.852C808.515 139.899 820.698 152.096 835.727 152.096Z" fill="#E0E3FF"/>
<path d="M1264.94 48.8865C1278.42 48.8865 1289.35 37.9458 1289.35 24.4496C1289.35 10.9535 1278.42 0.0126953 1264.94 0.0126953C1251.46 0.0126953 1240.53 10.9535 1240.53 24.4496C1240.53 37.9458 1251.46 48.8865 1264.94 48.8865Z" fill="#E0E3FF"/>
<path d="M422.132 37.8118C434.07 55.3901 458.2 34.0903 446.389 19.8524C434.578 5.61446 411.336 21.9227 422.132 37.8118Z" fill="#E0E3FF"/>
<path d="M549.962 129.196C539.737 113.637 514.161 129.501 524.462 145.847C535.157 162.816 560.124 144.641 549.962 129.196Z" fill="#E0E3FF"/>
<path d="M620.259 86.7869C610.034 71.228 584.458 87.0917 594.759 103.438C605.454 120.407 630.421 102.231 620.259 86.7869Z" fill="#E0E3FF"/>
<path d="M366.781 66.5539C362.43 79.5218 383.045 87.5108 387.854 75.8765C395.326 57.7775 371.285 53.1289 366.781 66.5539Z" fill="#E0E3FF"/>
<path d="M132.803 45.2795C128.451 58.2473 149.067 66.2363 153.875 54.6021C161.348 36.5031 137.307 31.8545 132.803 45.2795Z" fill="#E0E3FF"/>
<path d="M496.653 92.5657C492.86 105.152 513.945 112.138 518.335 99.5894C523.93 83.5606 500.827 78.7596 496.653 92.5657Z" fill="#E0E3FF"/>
<path d="M253.554 138.239C249.799 146.355 264.68 149.784 264.731 139.852C264.756 134.517 255.431 134.174 253.554 138.239Z" fill="#E0E3FF"/>
<path d="M281.553 82.7731C279.574 90.6351 292.857 91.6258 292.806 83.1668C292.781 77.7054 282.987 77.0576 281.553 82.7731Z" fill="#E0E3FF"/>
<path d="M102.33 100.694C100.351 108.556 113.634 109.547 113.583 101.088C113.558 95.6263 103.764 94.9785 102.33 100.694Z" fill="#E0E3FF"/>
<path d="M221.19 156.338C236.219 156.338 248.403 144.141 248.403 129.094C248.403 114.048 236.219 101.851 221.19 101.851C206.161 101.851 193.978 114.048 193.978 129.094C193.978 144.141 206.161 156.338 221.19 156.338Z" fill="#E0E3FF"/>
<path d="M27.2127 64.5981C42.2418 64.5981 54.4254 52.4006 54.4254 37.3542C54.4254 22.3078 42.2418 10.1104 27.2127 10.1104C12.1835 10.1104 0 22.3078 0 37.3542C0 52.4006 12.1835 64.5981 27.2127 64.5981Z" fill="#E0E3FF"/>
<path d="M718.25 165C733.279 165 745.462 152.803 745.462 137.757C745.462 122.71 733.279 110.513 718.25 110.513C703.221 110.513 691.037 122.71 691.037 137.757C691.037 152.803 703.221 165 718.25 165Z" fill="#E0E3FF"/>
<path d="M289.038 61.7908C302.519 61.7908 313.447 50.85 313.447 37.3539C313.447 23.8578 302.519 12.917 289.038 12.917C275.557 12.917 264.629 23.8578 264.629 37.3539C264.629 50.85 275.557 61.7908 289.038 61.7908Z" fill="#E0E3FF"/>
</g>
<defs>
<clipPath id="clip0_765_5432">
<rect width="1360" height="165" fill="white"/>
</clipPath>
</defs>
</svg>
