<svg width="1447" height="213" viewBox="0 0 1447 213" fill="none" xmlns="http://www.w3.org/2000/svg">
<mask id="mask0_670_4723" style="mask-type:alpha" maskUnits="userSpaceOnUse" x="0" y="0" width="1447" height="213">
<rect width="1447" height="213" fill="#D9D9D9"/>
</mask>
<g mask="url(#mask0_670_4723)">
<path opacity="0.8" d="M1434.87 398.47C1444.87 595.414 881.233 398.47 431.154 398.47C-18.924 398.47 150.094 309.017 150.094 183.752C431.154 -20.5 1040.28 2.02734 1279.84 132.245C1519.39 262.462 1386.36 328.272 1434.87 398.47Z" fill="url(#paint0_linear_670_4723)"/>
<path d="M1475.18 143.31C1475.18 261.776 1154.88 478.308 719.676 478.308C284.476 478.308 -122.51 297.104 -167 187.31C-66.5 88.8104 85.6765 -75.6904 605.676 55.81C1125.68 187.31 1486.68 43.3102 1475.18 143.31Z" fill="#4E466C"/>
<path d="M2024.26 271C2034.26 470.191 1238.48 555 788.5 555C338.518 555 -129.765 356.197 -129.765 229.502C245 -117 654.5 215 964 141.499C1273.5 67.9992 1583.76 2.5002 2024.26 271Z" fill="#C8CBFD"/>
</g>
<defs>
<linearGradient id="paint0_linear_670_4723" x1="1003.95" y1="12.3455" x2="999.979" y2="116.164" gradientUnits="userSpaceOnUse">
<stop stop-color="#988FC5"/>
<stop offset="1" stop-color="#392779"/>
</linearGradient>
</defs>
</svg>
