<svg width="1447" height="197" viewBox="0 0 1447 197" fill="none" xmlns="http://www.w3.org/2000/svg">
<mask id="mask0_670_4670" style="mask-type:alpha" maskUnits="userSpaceOnUse" x="0" y="0" width="1447" height="213">
<rect width="1447" height="213" fill="#D9D9D9"/>
</mask>
<g mask="url(#mask0_670_4670)">
<path opacity="0.8" d="M1476 274.39C1486 473.581 1370.48 348.89 920.5 348.89C470.517 348.89 543.5 226.085 543.5 99.3894C1069 -61 1198.5 240.215 1616 56.8887C2033.5 -126.437 1427.5 203.39 1476 274.39Z" fill="url(#paint0_linear_670_4670)"/>
<path d="M1458.18 160.001C1458.18 278.466 1137.88 494.998 702.677 494.998C267.476 494.998 -40.8341 390.292 -85.3236 280.499C-139.824 146 68.6766 -59.0003 588.677 72.5002C1108.68 204.001 1469.68 60.0004 1458.18 160.001Z" fill="#4E466C"/>
<path d="M1544.5 138C1554.5 337.192 1224.75 488.999 774.765 488.999C324.783 488.999 -30 265.196 -30 138.501C391.5 -67.4995 609.5 189 956.5 112C1303.5 35.0002 1496 67.0002 1544.5 138Z" fill="#C8CBFD"/>
</g>
<defs>
<linearGradient id="paint0_linear_670_4670" x1="945" y1="42" x2="940.935" y2="147" gradientUnits="userSpaceOnUse">
<stop stop-color="#988FC5"/>
<stop offset="1" stop-color="#392779"/>
</linearGradient>
</defs>
</svg>
