<svg width="429" height="64" viewBox="0 0 429 64" fill="none" xmlns="http://www.w3.org/2000/svg">
<mask id="mask0_670_4728" style="mask-type:alpha" maskUnits="userSpaceOnUse" x="0" y="0" width="429" height="64">
<rect width="429" height="63.1493" fill="#D9D9D9"/>
</mask>
<g mask="url(#mask0_670_4728)">
<path opacity="0.8" d="M363.097 122.217C366.063 180.606 198.958 122.217 65.5209 122.217C-67.9163 122.217 111.16 103.998 111.16 66.8598C194.488 6.30408 271.066 -6.21231 342.087 32.394C413.108 71.0003 348.715 101.405 363.097 122.217Z" fill="url(#paint0_linear_670_4728)"/>
<path d="M437.354 42.4881C437.354 77.6101 342.393 141.807 213.366 141.807C84.3401 141.807 -36.3214 88.0842 -49.5115 55.533C-19.7157 26.3302 25.4009 -22.4403 179.568 16.5464C333.735 55.533 440.763 12.8405 437.354 42.4881Z" fill="#4E466C"/>
<path d="M611.332 58.2575C614.297 117.313 367.18 164.544 233.771 164.544C100.362 164.544 -38.4722 105.604 -38.4722 68.0421C72.6364 -34.6873 208.5 69.0003 328 42.4998C447.5 15.9994 467.5 3.49975 611.332 58.2575Z" fill="#C8CBFD"/>
</g>
<defs>
<linearGradient id="paint0_linear_670_4728" x1="297.647" y1="3.65996" x2="296.469" y2="34.4396" gradientUnits="userSpaceOnUse">
<stop stop-color="#988FC5"/>
<stop offset="1" stop-color="#392779"/>
</linearGradient>
</defs>
</svg>
