<svg width="1447" height="197" viewBox="0 0 1447 197" fill="none" xmlns="http://www.w3.org/2000/svg">
<mask id="mask0_670_4670" style="mask-type:alpha" maskUnits="userSpaceOnUse" x="0" y="0" width="1447" height="213">
<rect width="1447" height="213" fill="#D9D9D9"/>
</mask>
<g mask="url(#mask0_670_4670)">
<path opacity="0.8" d="M1408 261.624C1418 460.816 1302.48 336.124 852.5 336.124C402.518 336.124 571.5 245.65 571.5 118.955C1011.5 -80.0449 1130.5 227.449 1548 44.1231C1965.5 -139.203 1359.5 190.624 1408 261.624Z" fill="url(#paint0_linear_670_4670)"/>
<path d="M1458.18 160C1458.18 278.465 1137.88 494.997 702.676 494.997C267.476 494.997 -139.51 313.794 -184 204C-83.5 105.5 68.6765 -59.0009 588.676 72.4996C1108.68 204 1469.68 59.9998 1458.18 160Z" fill="#4E466C"/>
<path d="M1748.5 188.5C1758.5 387.692 1224.75 488.998 774.765 488.998C324.783 488.998 -143.5 290.195 -143.5 163.5C245 -97.5002 564.5 175.999 911.5 98.9991C1258.5 21.9991 1511.5 -15.5002 1748.5 188.5Z" fill="#C8CBFD"/>
</g>
<defs>
<linearGradient id="paint0_linear_670_4670" x1="938.588" y1="41.5938" x2="934.523" y2="146.594" gradientUnits="userSpaceOnUse">
<stop stop-color="#988FC5"/>
<stop offset="1" stop-color="#392779"/>
</linearGradient>
</defs>
</svg>
