<?xml version="1.0" encoding="UTF-8"?>
<svg id="Camada_1" data-name="Camada 1" xmlns="http://www.w3.org/2000/svg" xmlns:xlink="http://www.w3.org/1999/xlink" viewBox="0 0 1024 355">
  <defs>
    <style>
      .cls-1 {
        fill: #fff;
      }

      .cls-2 {
        fill: none;
      }

      .cls-3 {
        clip-path: url(#clippath);
      }
    </style>
    <clipPath id="clippath">
      <rect class="cls-2" width="1024" height="355"/>
    </clipPath>
  </defs>
  <g class="cls-3">
    <g>
      <path class="cls-1" d="M213.05,110.48c3.04,0,5.5-2.46,5.5-5.49s-2.46-5.49-5.5-5.49-5.49,2.46-5.49,5.49,2.46,5.49,5.49,5.49Z"/>
      <path class="cls-1" d="M222.47,62.31c4.38,0,7.93-3.55,7.93-7.92s-3.55-7.92-7.93-7.92-7.93,3.55-7.93,7.92,3.55,7.92,7.93,7.92Z"/>
      <path class="cls-1" d="M364.82,46.57c4.32,0,7.82-3.5,7.82-7.82s-3.5-7.82-7.82-7.82-7.83,3.5-7.83,7.82,3.5,7.82,7.83,7.82Z"/>
      <path class="cls-1" d="M301.45,11.33c3.13,0,5.67-2.54,5.67-5.66s-2.54-5.66-5.67-5.66-5.67,2.54-5.67,5.66,2.54,5.66,5.67,5.66Z"/>
      <path class="cls-1" d="M352.79,98c5.05,0,9.15-4.09,9.15-9.14s-4.1-9.14-9.15-9.14-9.15,4.09-9.15,9.14,4.09,9.14,9.15,9.14Z"/>
      <path class="cls-1" d="M424.43,122.16c4.65,0,8.42-3.76,8.42-8.41s-3.77-8.41-8.42-8.41-8.42,3.76-8.42,8.41,3.77,8.41,8.42,8.41Z"/>
      <path class="cls-1" d="M409.51,189.51c5.99,0,10.85-4.85,10.85-10.84s-4.86-10.84-10.85-10.84-10.85,4.85-10.85,10.84,4.86,10.84,10.85,10.84Z"/>
      <path class="cls-1" d="M172.99,154.09c4.49,0,8.14-3.64,8.14-8.13s-3.64-8.13-8.14-8.13-8.14,3.64-8.14,8.13,3.64,8.13,8.14,8.13Z"/>
      <path class="cls-1" d="M312.13,172.96h26.4l-14.02,88.48h47.44l-3.83,23.39h-73.66l17.7-111.87h-.03Z"/>
      <path class="cls-1" d="M395.32,196.67h25.07l-14.02,88.13h-24.9l13.88-88.13h-.04Z"/>
      <path class="cls-1" d="M439.28,196.67h25.08l-1.84,11.68c4.24-4.24,8.9-7.54,14.02-9.87,5.11-2.33,10.26-3.51,15.37-3.51,4.66,0,8.83.83,12.45,2.5s6.57,4.03,8.87,7.02c2.3,3.02,3.83,6.57,4.66,10.67.83,4.14.87,8.62.07,13.52l-8.87,56.09h-25.08l8.03-50.74c.8-4.9.07-8.86-2.19-11.85-2.26-2.99-5.63-4.52-10.19-4.52-2.54,0-5.04.52-7.55,1.56-2.43,1.04-4.66,2.54-6.61,4.41-1.95,1.91-3.62,4.14-5.01,6.67-1.39,2.54-2.36,5.35-2.92,8.34l-7.34,46.08h-25.07l14.01-88.13h.07l.03.07Z"/>
      <path class="cls-1" d="M554.36,247.4v1.01c0,5.25,1.57,9.35,4.66,12.37,3.1,3.02,7.69,4.52,13.7,4.52,4.14,0,7.79-.83,11.03-2.5,3.23-1.67,5.63-4.03,7.16-7.02h24.9c-4.14,9.9-10.33,17.48-18.61,22.69-8.28,5.21-17.88,7.85-28.66,7.85-6.68,0-12.66-1.15-17.98-3.41-5.29-2.29-9.67-5.53-13.21-9.66-3.55-4.17-5.81-8.51-6.92-13-1.11-4.48-1.67-8.62-1.67-12.27,0-2.92.21-5.84.7-8.86,1.11-6.67,3.16-12.76,6.09-18.21,2.96-5.46,6.68-10.11,11.2-13.94s9.7-6.78,15.61-8.86c5.91-2.05,12.42-3.09,19.55-3.09,6.12,0,11.69.94,16.73,2.82,5.01,1.91,9.22,4.52,12.62,7.85,3.41,3.34,5.88,7.12,7.44,11.36,1.57,4.24,2.33,8.51,2.33,12.86,0,1.22-.07,2.4-.17,3.51-.31,4.8-1.01,9.45-2.02,14h-64.55l.07-.03ZM596.13,232.53v-1.01c0-4.55-1.39-8.2-4.17-10.95-2.78-2.71-7.02-4.1-12.69-4.1-5.01,0-9.46,1.42-13.39,4.27-3.89,2.82-6.78,6.78-8.69,11.75h38.95v.04Z"/>
      <path class="cls-1" d="M639.91,205.18c1.77-11.12,6.78-19.56,15.02-25.3,8.24-5.73,19.44-8.62,33.56-8.62,14.92,0,25.7,3.23,32.31,9.7,6.61,6.46,9.11,15.47,7.41,27.04h-25.91c1.01-10.25-4.66-15.36-17.04-15.36-5.46,0-9.91,1.04-13.29,3.16-3.37,2.12-5.39,5.01-5.91,8.69-.31,2.33,0,4.31.94,5.91.94,1.6,2.36,2.99,4.28,4.1,1.91,1.11,4.17,2.05,6.78,2.75,2.61.73,5.42,1.35,8.42,1.91,4.45,1.01,9.11,2.08,13.95,3.27,4.83,1.18,9.15,2.92,12.87,5.28,3.72,2.33,6.64,5.49,8.69,9.42,2.05,3.96,2.57,9.21,1.57,15.78-1.67,10.77-6.82,19.08-15.44,24.88-8.66,5.77-20.41,8.69-35.33,8.69-8.03,0-14.92-.87-20.73-2.57-5.77-1.7-10.43-4.17-13.95-7.33-3.51-3.16-5.91-7.02-7.16-11.5-1.29-4.52-1.46-9.52-.56-15.12h25.21c-.21,5,1.43,8.83,4.9,11.43,3.48,2.61,8.62,3.93,15.27,3.93,6.02,0,10.85-1.04,14.54-3.16,3.69-2.12,5.77-5,6.36-8.69.31-2.33,0-4.27-1.08-5.77-1.04-1.49-2.61-2.74-4.66-3.75-2.05-1.01-4.49-1.81-7.27-2.43-2.78-.62-5.77-1.18-9.01-1.74-4.45-.9-8.97-1.91-13.53-3.09-4.56-1.18-8.62-2.95-12.14-5.35-3.51-2.4-6.15-5.67-8.03-9.77-1.84-4.1-2.19-9.56-1.08-16.37v-.1l.03.1Z"/>
      <path class="cls-1" d="M758.51,283.65l-19.72-86.99h25.56l10.5,54.77,28.9-54.77h26.4l-65.49,120.7h-23.89l17.7-33.71h.03Z"/>
      <path class="cls-1" d="M841.35,196.67h25.08l-1.84,11.68c4.24-4.24,8.9-7.54,14.02-9.87,5.11-2.33,10.26-3.51,15.37-3.51,4.66,0,8.83.83,12.45,2.5s6.57,4.03,8.87,7.02c2.29,3.02,3.83,6.57,4.66,10.67.84,4.14.87,8.62.07,13.52l-8.87,56.09h-25.08l8.03-50.74c.8-4.9.07-8.86-2.19-11.85-2.26-2.99-5.63-4.52-10.19-4.52-2.54,0-5.04.52-7.55,1.56-2.43,1.04-4.66,2.54-6.61,4.41-1.95,1.88-3.62,4.14-5.01,6.67-1.39,2.54-2.36,5.35-2.92,8.34l-7.34,46.08h-25.07l14.02-88.13h.07l.03.07Z"/>
      <path class="cls-1" d="M931.25,240.73c1.11-7.02,3.2-13.38,6.29-19.04,3.06-5.67,6.92-10.5,11.51-14.46,4.62-3.93,9.95-6.99,15.96-9.11,6.02-2.12,12.59-3.16,19.72-3.16,6.22,0,11.86.94,16.86,2.74,5.01,1.84,9.22,4.41,12.63,7.79,3.41,3.37,5.88,7.12,7.44,11.36,1.57,4.24,2.33,8.65,2.33,13.17,0,.9-.07,1.81-.17,2.68h-25.71c-.56-4.45-2.26-7.96-5.11-10.49-2.82-2.54-6.71-3.82-11.62-3.82-6.22,0-11.58,2.05-16.03,6.15-4.45,4.14-7.23,9.56-8.35,16.37-.31,1.81-.49,3.44-.49,5,0,4.34,1.39,8.27,4.17,11.85,2.78,3.55,7.27,5.35,13.53,5.35,4.66,0,8.83-1.22,12.45-3.68,3.62-2.47,6.54-5.84,8.76-10.18h25.73c-2.92,11.68-8.66,20.78-17.21,27.32-8.59,6.53-19.34,9.77-32.24,9.77-7.03,0-13.25-1.11-18.71-3.34-5.46-2.22-9.98-5.35-13.53-9.35-3.55-4.03-5.91-8.24-7.09-12.68-1.18-4.45-1.77-8.51-1.77-12.2,0-2.54.21-5.21.7-8.03l-.1.07.03-.07Z"/>
      <path class="cls-1" d="M237.57,240c.14-21.58-5.7-42.99-17.01-61.58-1.84-3.06-2.75-6.53-2.68-10.01.07-3.48,1.11-6.95,3.1-10.01v-.07l58.67-89.52c.35-.56.77-.94,1.22-1.29.7-.49,1.57-.73,2.43-.76.87,0,1.67.21,2.47.7l.7.45c1.6,1.04,3.72.59,4.77-1.01l4.8-7.4c1.04-1.6.59-3.72-1.01-4.76l-.7-.45c-2.3-1.49-4.87-2.5-7.44-2.95-3.89-.7-7.82-.21-11.41,1.29-3.55,1.49-6.78,4.1-9.01,7.54l-58.67,89.49-.07.07c-3.58,5.53-6.68,11.19-6.82,17.59-.14,6.36,2.68,13.48,6.12,19.15,9.77,16.09,14.85,34.65,14.71,53.35-.14,18.73-5.43,37.57-16.38,54.42-.17.31-.38.59-.56.87-7.65,11.47-17.35,20.78-28.45,27.84-16.62,10.63-36.24,16.2-56.06,16.23-19.86.07-39.79-5.42-57.18-16.68-.24-.17-.49-.31-.7-.45h-.07l-.07-.07c-.24-.17-.49-.31-.73-.45-11.58-7.54-21.08-17.06-28.41-27.87-10.99-16.23-17.01-35.34-17.49-54.74-.49-19.43,4.56-39.1,15.68-56.58.17-.31.38-.59.56-.9,10.99-16.86,26.08-29.33,43.16-37.01,17.08-7.68,36.06-10.57,54.78-8.17,6.61.83,14.78.9,20.55-1.81,5.77-2.71,9.15-8.2,12.76-13.73l.07-.07,58.15-89.87c1.5-2.29,2.5-4.83,2.96-7.4.7-3.89.21-7.82-1.29-11.4-1.5-3.54-4.1-6.78-7.55-9-1.98-1.29-4.63-.73-5.91,1.25l-3.93,6.05c-1.29,1.98-.73,4.62,1.25,5.91.56.35.94.76,1.25,1.22.49.69.73,1.56.76,2.43,0,.87-.21,1.67-.7,2.47l-58.15,89.87v.07c-2.02,3.06-4.8,5.42-7.93,6.88-3.16,1.46-6.68,2.05-10.22,1.63-21.6-2.78-43.51.56-63.23,9.42-19.72,8.9-37.21,23.35-49.84,42.78-.21.31-.45.7-.66,1.01-8.56,13.48-14.02,28.11-16.52,42.99-3.76,22.31-.94,45.21,7.89,65.86,8.76,20.57,23.58,38.92,43.61,51.96.28.17.52.31.8.49.24.17.52.35.77.52,13.39,8.69,28.07,14.35,43.09,17.17,22.57,4.17,45.87,1.91,66.98-6.36,21.11-8.27,39.96-22.69,53.28-42.68.21-.31.45-.69.66-1.01,12.66-19.43,18.81-41.29,18.95-62.87h-.14Z"/>
      <path class="cls-1" d="M154.48,177.83c-68.89-1.04-66.74-40.45-101.2-3.06-34.46,37.39-32.07,95.68,5.39,130.08,37.42,34.44,96.72,32.91,130.17-5.39,49.56-56.72,14.33-120.94-34.39-121.67l.03.04ZM71.4,256.27c-3.13,0-5.95-2.12-6.75-5.25l-10.82-43.09c-.52-2.09-.03-4.31,1.29-5.98,1.32-1.7,3.3-2.71,5.53-2.64l44.62.45c3.82.03,6.92,3.2,6.89,7.02-.03,3.82-3.16,6.78-7.02,6.88l-35.61-.35,8.62,34.37c.94,3.72-1.32,7.51-5.04,8.44-.56.14-1.15.21-1.7.21v-.07ZM81.31,280.11c-1.95,0-3.9-.8-5.25-2.4-2.5-2.88-2.19-7.3.7-9.8l59.47-51.5c2.89-2.5,7.3-2.19,9.81.7,2.5,2.88,2.19,7.3-.69,9.8l-59.47,51.5c-1.32,1.15-2.96,1.7-4.56,1.7ZM169.51,289.07c-1.32,1.67-3.34,2.64-5.46,2.64h-.07l-44.58-.45c-3.83-.04-6.92-3.2-6.89-7.02.03-3.82,3.13-6.88,6.95-6.88h.07l35.61.35-8.59-34.37c-.94-3.72,1.32-7.51,5.08-8.45,3.72-.94,7.51,1.32,8.45,5.07l10.78,43.09c.52,2.08.04,4.31-1.29,5.98l-.07.03Z"/>
    </g>
  </g>
</svg>