<?xml version="1.0" encoding="UTF-8"?>
<svg id="Camada_2" data-name="Camada 2" xmlns="http://www.w3.org/2000/svg" viewBox="0 0 294.44 102.15">
  <defs>
    <style>
      .cls-1 {
        fill: #fff;
      }
    </style>
  </defs>
  <g id="Camada_1-2" data-name="Camada 1">
    <g>
      <circle class="cls-1" cx="61.26" cy="30.21" r="1.58"/>
      <circle class="cls-1" cx="63.97" cy="15.65" r="2.28"/>
      <circle class="cls-1" cx="104.9" cy="11.15" r="2.25"/>
      <circle class="cls-1" cx="86.68" cy="1.63" r="1.63"/>
      <circle class="cls-1" cx="101.44" cy="25.57" r="2.63"/>
      <circle class="cls-1" cx="122.04" cy="32.73" r="2.42"/>
      <circle class="cls-1" cx="117.75" cy="51.41" r="3.12"/>
      <path class="cls-1" d="M59.39,61.28c-.16-.36-.33-.69-.53-1.03.3.25.5.61.53,1.03Z"/>
      <circle class="cls-1" cx="49.74" cy="42" r="2.34"/>
      <g>
        <path class="cls-1" d="M89.75,49.77h7.59l-4.03,25.46h13.64l-1.1,6.73h-21.18l5.09-32.19Z"/>
        <path class="cls-1" d="M113.67,56.59h7.21l-4.03,25.36h-7.16l3.99-25.36Z"/>
        <path class="cls-1" d="M126.31,56.59h7.21l-.53,3.36c1.22-1.22,2.56-2.17,4.03-2.84s2.95-1.01,4.42-1.01c1.34,0,2.54.24,3.58.72s1.89,1.16,2.55,2.02c.66.87,1.1,1.89,1.34,3.07.24,1.19.25,2.48.02,3.89l-2.55,16.14h-7.21l2.31-14.6c.23-1.41.02-2.55-.63-3.41-.64-.86-1.62-1.3-2.93-1.3-.73,0-1.45.15-2.17.45-.7.3-1.34.73-1.9,1.27-.56.55-1.04,1.19-1.44,1.92s-.68,1.54-.84,2.4l-2.11,13.26h-7.21l4.03-25.36h.02Z"/>
        <path class="cls-1" d="M159.4,71.19v.29c0,1.51.45,2.69,1.34,3.56s2.21,1.3,3.94,1.3c1.19,0,2.24-.24,3.17-.72s1.62-1.16,2.06-2.02h7.16c-1.19,2.85-2.97,5.03-5.35,6.53s-5.14,2.26-8.24,2.26c-1.92,0-3.64-.33-5.17-.98-1.52-.66-2.78-1.59-3.8-2.78-1.02-1.2-1.67-2.45-1.99-3.74s-.48-2.48-.48-3.53c0-.84.06-1.68.2-2.55.32-1.92.91-3.67,1.75-5.24.85-1.57,1.92-2.91,3.22-4.01,1.3-1.1,2.79-1.95,4.49-2.55,1.7-.59,3.57-.89,5.62-.89,1.76,0,3.36.27,4.81.81,1.44.55,2.65,1.3,3.63,2.26.98.96,1.69,2.05,2.14,3.27.45,1.22.67,2.45.67,3.7,0,.35-.02.69-.05,1.01-.09,1.38-.29,2.72-.58,4.03h-18.56ZM171.41,66.91v-.29c0-1.31-.4-2.36-1.2-3.15-.8-.78-2.02-1.18-3.65-1.18-1.44,0-2.72.41-3.85,1.23-1.12.81-1.95,1.95-2.5,3.38h11.2Z"/>
        <path class="cls-1" d="M184,59.04c.51-3.2,1.95-5.63,4.32-7.28,2.37-1.65,5.59-2.48,9.65-2.48,4.29,0,7.39.93,9.29,2.79,1.91,1.86,2.62,4.45,2.13,7.78h-7.45c.29-2.95-1.34-4.42-4.9-4.42-1.57,0-2.85.3-3.82.91s-1.55,1.44-1.7,2.5c-.09.67,0,1.24.27,1.7.27.46.68.86,1.23,1.18.55.32,1.2.59,1.95.79.75.21,1.56.39,2.42.55,1.28.29,2.62.6,4.01.94,1.39.34,2.63.84,3.7,1.52,1.07.67,1.91,1.58,2.5,2.71.59,1.14.74,2.65.45,4.54-.48,3.1-1.96,5.49-4.44,7.16-2.49,1.66-5.87,2.5-10.16,2.5-2.31,0-4.29-.25-5.96-.74-1.66-.49-3-1.2-4.01-2.11s-1.7-2.02-2.06-3.31c-.37-1.3-.42-2.74-.16-4.35h7.25c-.06,1.44.41,2.54,1.41,3.29s2.48,1.13,4.39,1.13c1.73,0,3.12-.3,4.18-.91,1.06-.61,1.66-1.44,1.83-2.5.09-.67,0-1.23-.31-1.66-.3-.43-.75-.79-1.34-1.08-.59-.29-1.29-.52-2.09-.7s-1.66-.34-2.59-.5c-1.28-.26-2.58-.55-3.89-.89s-2.48-.85-3.49-1.54c-1.01-.69-1.77-1.63-2.31-2.81-.53-1.18-.63-2.75-.31-4.71v-.03Z"/>
        <path class="cls-1" d="M218.1,81.62l-5.67-25.03h7.35l3.02,15.76,8.31-15.76h7.59l-18.83,34.73h-6.87l5.09-9.7h0Z"/>
        <path class="cls-1" d="M241.92,56.59h7.21l-.53,3.36c1.22-1.22,2.56-2.17,4.03-2.84s2.95-1.01,4.42-1.01c1.34,0,2.54.24,3.58.72s1.89,1.16,2.55,2.02c.66.87,1.1,1.89,1.34,3.07.24,1.19.25,2.48.02,3.89l-2.55,16.14h-7.21l2.31-14.6c.23-1.41.02-2.55-.63-3.41-.64-.86-1.62-1.3-2.93-1.3-.73,0-1.45.15-2.17.45-.7.3-1.34.73-1.9,1.27s-1.04,1.19-1.44,1.92-.68,1.54-.84,2.4l-2.11,13.26h-7.21l4.03-25.36h.02Z"/>
        <path class="cls-1" d="M267.77,69.27c.32-2.02.92-3.85,1.81-5.48.88-1.63,1.99-3.02,3.31-4.16,1.33-1.13,2.86-2.01,4.59-2.62s3.62-.91,5.67-.91c1.79,0,3.41.27,4.85.79,1.44.53,2.65,1.27,3.63,2.24.98.96,1.69,2.05,2.14,3.27.45,1.22.67,2.49.67,3.79,0,.26-.02.52-.05.77h-7.39c-.16-1.28-.65-2.29-1.47-3.02-.81-.73-1.93-1.1-3.34-1.1-1.79,0-3.33.59-4.61,1.77-1.28,1.19-2.08,2.75-2.4,4.71-.09.52-.14.99-.14,1.44,0,1.25.4,2.38,1.2,3.41.8,1.02,2.09,1.54,3.89,1.54,1.34,0,2.54-.35,3.58-1.06,1.04-.7,1.88-1.68,2.52-2.93h7.4c-.84,3.36-2.49,5.98-4.95,7.86-2.47,1.88-5.56,2.81-9.27,2.81-2.02,0-3.81-.32-5.38-.96-1.57-.64-2.87-1.54-3.89-2.69-1.02-1.16-1.7-2.37-2.04-3.65s-.51-2.45-.51-3.51c0-.73.06-1.5.2-2.31l-.03.02Z"/>
      </g>
      <path class="cls-1" d="M59.4,61.31v-.02h-.01c-.16-.37-.33-.7-.53-1.04,0,0,0-.01-.01-.01h0c-2.93-5.38-8.3-8.98-14.44-9.07-19.8-.3-19.19-11.63-29.1-.87-9.91,10.76-9.21,27.53,1.55,37.43h.01c10.76,9.91,27.81,9.47,37.43-1.55,7.61-8.71,8.27-18.04,5.1-24.87ZM19.18,71.99l-3.17-12.63s-.46-2.37,2.28-2.43l12.59.15s1.65,0,1.97,1.87c0,0-.03,2.3-2.46,2.14l-9.84-.12,2.51,10.1s.27,1.6-1.47,2.24c0,0-1.85.38-2.41-1.32ZM22.3,79.46c-1.22-1.77.66-2.98.66-2.98l15.93-13.86s1.44-2.07,3.32-.72c1.88,1.34,0,3.24,0,3.24,0,0-14.82,12.78-16.59,14.32-1.77,1.55-3.32,0-3.32,0ZM47.43,83.56l-12.59-.14s-1.65-.01-1.98-1.87c0,0,.04-2.31,2.47-2.14l9.84.11-2.51-10.1s-.27-1.6,1.47-2.24c0,0,1.84-.37,2.4,1.33l3.18,12.63s.45,2.36-2.28,2.42Z"/>
      <path class="cls-1" d="M68.31,69.06c.04-6.21-1.64-12.37-4.89-17.72-.53-.88-.79-1.88-.77-2.88s.32-2,.89-2.88h0v-.02l16.87-25.76h0c.1-.16.22-.27.35-.37.2-.14.45-.21.7-.22.25,0,.48.06.71.2l.2.13c.46.3,1.07.17,1.37-.29l1.38-2.13c.3-.46.17-1.07-.29-1.37l-.2-.13c-.66-.43-1.4-.72-2.14-.85-1.12-.2-2.25-.06-3.28.37-1.02.43-1.95,1.18-2.59,2.17h0l-16.87,25.75h0l-.02.02c-1.03,1.59-1.92,3.22-1.96,5.06-.04,1.83.77,3.88,1.76,5.51,2.81,4.63,4.27,9.97,4.23,15.35-.04,5.39-1.56,10.81-4.71,15.66-.05.09-.11.17-.16.25-2.2,3.3-4.99,5.98-8.18,8.01-4.78,3.06-10.42,4.66-16.12,4.67-5.71.02-11.44-1.56-16.44-4.8-.07-.05-.14-.09-.2-.13h-.02l-.02-.02c-.07-.05-.14-.09-.21-.13-3.33-2.17-6.06-4.91-8.17-8.02-3.16-4.67-4.89-10.17-5.03-15.75-.14-5.59,1.31-11.25,4.51-16.28.05-.09.11-.17.16-.26,3.16-4.85,7.5-8.44,12.41-10.65,4.91-2.21,10.37-3.04,15.75-2.35,1.9.24,4.25.26,5.91-.52,1.66-.78,2.63-2.36,3.67-3.95l.02-.02,16.72-25.86h0c.43-.66.72-1.39.85-2.13.2-1.12.06-2.25-.37-3.28-.43-1.02-1.18-1.95-2.17-2.59-.57-.37-1.33-.21-1.7.36l-1.13,1.74c-.37.57-.21,1.33.36,1.7.16.1.27.22.36.35.14.2.21.45.22.7,0,.25-.06.48-.2.71h0l-16.72,25.86v.02c-.58.88-1.38,1.56-2.28,1.98-.91.42-1.92.59-2.94.47-6.21-.8-12.51.16-18.18,2.71-5.67,2.56-10.7,6.72-14.33,12.31-.06.09-.13.2-.19.29-2.46,3.88-4.03,8.09-4.75,12.37-1.08,6.42-.27,13.01,2.27,18.95,2.52,5.92,6.78,11.2,12.54,14.95.08.05.15.09.23.14.07.05.15.1.22.15,3.85,2.5,8.07,4.13,12.39,4.94,6.49,1.2,13.19.55,19.26-1.83,6.07-2.38,11.49-6.53,15.32-12.28.06-.09.13-.2.19-.29,3.64-5.59,5.41-11.88,5.45-18.09h0Z"/>
    </g>
  </g>
</svg>