<?xml version="1.0" encoding="UTF-8"?>
<svg id="Camada_2" data-name="Camada 2" xmlns="http://www.w3.org/2000/svg" viewBox="0 0 780.71 640.31">
  <defs>
    <style>
      .cls-1 {
        fill: #fff;
      }
    </style>
  </defs>
  <g id="Camada_1-2" data-name="Camada 1">
    <g>
      <path class="cls-1" d="M384.26,199.26c5.48,0,9.92-4.44,9.92-9.9s-4.44-9.9-9.92-9.9-9.9,4.44-9.9,9.9,4.44,9.9,9.9,9.9Z"/>
      <path class="cls-1" d="M401.25,112.37c7.9,0,14.3-6.4,14.3-14.29s-6.4-14.29-14.3-14.29-14.3,6.4-14.3,14.29,6.4,14.29,14.3,14.29Z"/>
      <path class="cls-1" d="M658.01,83.98c7.79,0,14.11-6.31,14.11-14.11s-6.31-14.11-14.11-14.11-14.12,6.31-14.12,14.11,6.31,14.11,14.12,14.11Z"/>
      <path class="cls-1" d="M543.7,20.42c5.65,0,10.23-4.58,10.23-10.21s-4.58-10.21-10.23-10.21-10.23,4.58-10.23,10.21,4.58,10.21,10.23,10.21Z"/>
      <path class="cls-1" d="M636.31,176.75c9.11,0,16.5-7.38,16.5-16.49s-7.4-16.49-16.5-16.49-16.5,7.38-16.5,16.49,7.38,16.49,16.5,16.49Z"/>
      <path class="cls-1" d="M765.53,220.32c8.39,0,15.19-6.78,15.19-15.17s-6.8-15.17-15.19-15.17-15.19,6.78-15.19,15.17,6.8,15.17,15.19,15.17Z"/>
      <path class="cls-1" d="M312,277.92c8.1,0,14.68-6.57,14.68-14.66s-6.57-14.66-14.68-14.66-14.68,6.57-14.68,14.66,6.57,14.66,14.68,14.66Z"/>
      <path class="cls-1" d="M428.48,432.87c.25-38.92-10.28-77.54-30.68-111.07-3.32-5.52-4.96-11.78-4.83-18.06s2-12.54,5.59-18.06v-.13l105.82-161.47c.63-1.01,1.39-1.7,2.2-2.33,1.26-.88,2.83-1.32,4.38-1.37,1.57,0,3.01.38,4.46,1.26l1.26.81c2.89,1.88,6.71,1.06,8.6-1.82l8.66-13.35c1.88-2.89,1.06-6.71-1.82-8.59l-1.26-.81c-4.15-2.69-8.78-4.51-13.42-5.32-7.02-1.26-14.11-.38-20.58,2.33-6.4,2.69-12.23,7.4-16.25,13.6l-105.82,161.41-.13.13c-6.46,9.97-12.05,20.18-12.3,31.73-.25,11.47,4.83,24.31,11.04,34.54,17.62,29.02,26.79,62.5,26.53,96.23-.25,33.78-9.79,67.77-29.54,98.16-.31.56-.69,1.06-1.01,1.57-13.8,20.69-31.29,37.48-51.32,50.22-29.98,19.17-65.37,29.22-101.12,29.27-35.82.13-71.77-9.78-103.14-30.09-.43-.31-.88-.56-1.26-.81h-.13l-.13-.13c-.43-.31-.88-.56-1.32-.81-20.89-13.6-38.02-30.77-51.24-50.27-19.82-29.27-30.68-63.74-31.55-98.74-.88-35.05,8.22-70.53,28.28-102.05.31-.56.69-1.06,1.01-1.62,19.82-30.41,47.04-52.9,77.85-66.76,30.81-13.85,65.04-19.07,98.81-14.74,11.92,1.5,26.66,1.62,37.07-3.26,10.41-4.89,16.5-14.79,23.02-24.77l.13-.13,104.89-162.1c2.71-4.13,4.51-8.71,5.34-13.35,1.26-7.02.38-14.11-2.33-20.56-2.71-6.39-7.4-12.23-13.62-16.23-3.57-2.33-8.35-1.32-10.66,2.25l-7.09,10.91c-2.33,3.57-1.32,8.33,2.25,10.66,1.01.63,1.7,1.37,2.25,2.2.88,1.24,1.32,2.81,1.37,4.38,0,1.57-.38,3.01-1.26,4.46l-104.89,162.1v.13c-3.64,5.52-8.66,9.78-14.3,12.41-5.7,2.63-12.05,3.7-18.43,2.94-38.96-5.01-78.48,1.01-114.05,16.99-35.57,16.05-67.12,42.12-89.9,77.16-.38.56-.81,1.26-1.19,1.82-15.44,24.31-25.29,50.7-29.8,77.54-6.78,40.24-1.7,81.55,14.23,118.79,15.8,37.1,42.53,70.2,78.66,93.72.51.31.94.56,1.44.88.43.31.94.63,1.39.94,24.15,15.67,50.63,25.88,77.72,30.97,40.71,7.52,82.74,3.45,120.81-11.47,38.08-14.92,72.08-40.93,96.1-76.98.38-.56.81-1.24,1.19-1.82,22.84-35.05,33.93-74.48,34.18-113.4h-.25l.07-.07Z"/>
      <path class="cls-1" d="M278.61,320.74c-124.26-1.88-120.38-72.96-182.54-5.52-62.16,67.44-57.85,172.58,9.72,234.63,67.5,62.12,174.46,59.36,234.79-9.72,89.39-102.31,25.85-218.14-62.03-219.46l.05.07h0ZM128.76,462.22c-5.65,0-10.73-3.82-12.18-9.47l-19.52-77.72c-.94-3.77-.05-7.77,2.33-10.79,2.38-3.07,5.95-4.89,9.97-4.76l80.48.81c6.89.05,12.48,5.77,12.43,12.66s-5.7,12.23-12.66,12.41l-64.23-.63,15.55,61.99c1.7,6.71-2.38,13.55-9.09,15.22-1.01.25-2.07.38-3.07.38v-.13l-.02.02ZM146.63,505.22c-3.52,0-7.03-1.44-9.47-4.33-4.51-5.19-3.95-13.17,1.26-17.68l107.27-92.89c5.21-4.51,13.17-3.95,17.69,1.26,4.51,5.19,3.95,13.17-1.24,17.68l-107.27,92.89c-2.38,2.07-5.34,3.07-8.22,3.07h-.02ZM305.72,521.38c-2.38,3.01-6.02,4.76-9.85,4.76h-.13l-80.41-.81c-6.91-.07-12.48-5.77-12.43-12.66.05-6.89,5.65-12.41,12.54-12.41h.13l64.23.63-15.49-61.99c-1.7-6.71,2.38-13.55,9.16-15.24,6.71-1.7,13.55,2.38,15.24,9.14l19.44,77.72c.94,3.75.07,7.77-2.33,10.79l-.13.05.02.02Z"/>
    </g>
  </g>
</svg>